<?xml version="1.0" encoding="UTF-8"?>
<svg width="1408" height="768" viewBox="0 0 1408 768" xmlns="http://www.w3.org/2000/svg">
  <path id="11" d="M 0,768 C 0,512 0,256 0,0 C 469.333,0 938.667,0 1408,0 C 1408,256 1408,512 1408,768 C 938.667,768 469.333,768 0,768 ZM 418.853,539.093 C 418.059,534.228 409.878,514.133 377.486,437.500 C 365.482,409.100 313.330,285.280 306.515,269 C 280.324,206.429 278.933,203.665 269.303,195.082 C 258.461,185.418 246.756,181 232,181 C 216.119,181 203.724,186.043 192.951,196.885 C 189.336,200.524 184.959,206 183.226,209.056 C 181.493,212.112 172.137,234.837 162.433,259.556 C 152.729,284.275 137.908,322.050 129.496,343.500 C 121.084,364.950 100.929,416.264 84.708,457.531 C 68.487,498.798 54.719,534.348 54.113,536.531 C 50.310,550.229 56.507,568.645 68.038,577.911 C 81.885,589.039 102.925,590.140 117.622,580.507 C 122.903,577.045 128.593,570.783 131.291,565.463 C 132.788,562.510 146.810,526.926 154.625,506.246 C 155.917,502.828 157.208,499.410 158.500,495.992 C 184.158,496.077 209.816,496.161 235.474,496.246 C 261.132,496.331 286.789,496.415 312.447,496.500 C 316.340,505.833 320.234,515.167 324.127,524.500 C 330.551,539.900 337.240,556.006 338.994,560.291 C 343.178,570.515 350.603,578.694 359.820,583.232 C 366.099,586.323 367.054,586.500 377.479,586.500 C 387.732,586.500 388.956,586.283 395.047,583.397 C 398.648,581.691 403.340,578.766 405.474,576.897 C 415.831,567.828 421.108,552.917 418.853,539.093 ZM 786.974,380.812 C 785.873,374.282 780.550,364.761 775.289,359.912 C 772.853,357.666 767.854,354.405 764.180,352.665 C 761.953,351.610 759.727,350.555 757.500,349.500 C 738.667,349.397 719.833,349.293 701,349.190 C 661.265,348.972 642.729,349.222 638.533,350.033 C 625.916,352.471 616.941,359.294 611.278,370.752 C 607.628,378.138 607.500,378.753 607.500,388.969 C 607.500,398.892 607.701,399.951 610.774,406.193 C 614.830,414.432 622.731,421.941 630.753,425.179 C 636.315,427.424 637.602,427.508 670.750,427.798 C 682.167,427.898 693.583,427.998 705,428.098 C 705,434.829 705,441.560 705,448.291 C 705,455.022 705,461.754 705,468.485 C 702.548,470.851 700.096,473.217 697.644,475.583 C 683.766,488.975 667.410,498.131 648.433,503.133 C 640.550,505.211 637.326,505.482 621,505.441 C 604.239,505.399 601.587,505.147 592.794,502.766 C 549.386,491.010 517.905,455.532 509.376,408.758 C 507.069,396.106 507.103,372.724 509.446,359.500 C 514.301,332.104 526.124,309.590 545.053,291.700 C 566.415,271.511 590.670,262 620.797,262 C 653.049,262 674.598,271.327 698.668,295.705 C 710.582,307.771 715.539,310.929 725.977,313.098 C 733.263,314.612 743.135,313.753 750.500,310.963 C 755.102,309.220 758.153,307.037 763.595,301.595 C 773.290,291.900 775.504,286.387 775.481,272 C 775.465,262.345 775.214,260.977 772.367,255 C 766.682,243.066 748.836,225.144 730.210,212.663 C 699.081,191.803 662.217,181 622.169,181 C 567.102,181 517.251,201.111 479.707,238.473 C 450.277,267.759 432.320,303.139 424.876,346.500 C 422.227,361.929 421.295,391.373 422.947,407.400 C 432.402,499.103 494.796,567.343 584.500,584.089 C 606.556,588.206 638.753,587.734 662,582.953 C 706.317,573.838 749.416,546.644 775.217,511.519 C 782.332,501.832 785.643,495.248 786.986,488.114 C 788.179,481.774 788.169,387.897 786.974,380.812 ZM 1082.940,217.232 C 1080.780,206.274 1071.043,194.254 1060.218,189.180 C 1058.312,188.287 1056.406,187.393 1054.500,186.500 C 1017.500,186.500 980.500,186.500 943.500,186.500 C 906.500,186.500 869.500,186.500 832.500,186.500 C 830.572,187.278 828.643,188.057 826.715,188.835 C 823.259,190.230 818.611,193.318 815.166,196.507 C 794.781,215.380 799.645,248.379 824.688,261.097 C 826.921,262.231 829.156,263.366 831.389,264.500 C 843.074,264.667 854.759,264.833 866.444,265 C 878.129,265.167 889.815,265.333 901.500,265.500 C 901.667,314.167 901.833,362.833 902,411.500 C 902.167,460.167 902.333,508.833 902.500,557.500 C 903.399,559.418 904.297,561.335 905.196,563.253 C 908.954,571.273 916.872,579.319 924.888,583.266 C 931.138,586.344 932.010,586.500 942.977,586.500 C 953.796,586.500 954.901,586.311 961.062,583.391 C 973.420,577.535 981.749,566.440 983.944,552.914 C 984.629,548.690 984.987,498.457 984.992,405.809 C 984.995,358.912 984.997,312.015 985,265.118 C 996.583,265.015 1008.167,264.912 1019.750,264.809 C 1031.333,264.706 1042.917,264.603 1054.500,264.500 C 1056.734,263.442 1058.967,262.384 1061.201,261.326 C 1078.025,253.356 1086.623,235.916 1082.940,217.232 ZM 1325.888,216.618 C 1323.239,205.334 1312.829,193.094 1302.247,188.821 C 1296.537,186.515 1296.172,186.498 1245.500,186.182 C 1190.936,185.841 1187.457,186.078 1178.805,190.732 C 1153.471,204.359 1150.961,240.588 1174.169,257.624 C 1183.182,264.240 1187.654,265 1217.589,265 C 1226.393,265 1235.196,265 1244,265 C 1244,293.346 1244,321.693 1244,350.039 C 1244,403.584 1243.605,438.619 1242.934,444.637 C 1240.139,469.705 1232.068,486.450 1218.413,495.514 C 1199.830,507.849 1171.685,507.630 1154.902,495.019 C 1144.294,487.048 1137.767,474.977 1134.036,456.432 C 1129.110,431.946 1113.489,419.063 1090.081,420.182 C 1076.020,420.854 1065.272,426.871 1057.982,438.149 C 1050.233,450.138 1049.264,463.178 1054.510,484.844 C 1066.911,536.056 1103.562,572.274 1155,584.146 C 1166.299,586.754 1192.617,587.741 1205.262,586.032 C 1234.964,582.018 1261.557,569.224 1281.972,549.126 C 1308.868,522.647 1322.492,490.099 1325.975,444 C 1327.253,427.091 1327.174,222.097 1325.888,216.618 Z" fill="#FFFFFF" stroke="none" />
  <path id="10" d="M 418.853,539.093 C 421.108,552.917 415.831,567.828 405.474,576.897 C 403.340,578.766 398.648,581.691 395.047,583.397 C 388.956,586.283 387.732,586.500 377.479,586.500 C 367.054,586.500 366.099,586.323 359.820,583.232 C 350.603,578.694 343.178,570.515 338.994,560.291 C 337.240,556.006 330.551,539.900 324.127,524.500 C 320.234,515.167 316.340,505.833 312.447,496.500 C 286.789,496.415 261.132,496.331 235.474,496.246 C 209.816,496.161 184.158,496.077 158.500,495.992 C 157.208,499.410 155.917,502.828 154.625,506.246 C 146.810,526.926 132.788,562.510 131.291,565.463 C 128.593,570.783 122.903,577.045 117.622,580.507 C 102.925,590.140 81.885,589.039 68.038,577.911 C 56.507,568.645 50.310,550.229 54.113,536.531 C 54.719,534.348 68.487,498.798 84.708,457.531 C 100.929,416.264 121.084,364.950 129.496,343.500 C 137.908,322.050 152.729,284.275 162.433,259.556 C 172.137,234.837 181.493,212.112 183.226,209.056 C 184.959,206 189.336,200.524 192.951,196.885 C 203.724,186.043 216.119,181 232,181 C 246.756,181 258.461,185.418 269.303,195.082 C 278.933,203.665 280.324,206.429 306.515,269 C 313.330,285.280 365.482,409.100 377.486,437.500 C 409.878,514.133 418.059,534.228 418.853,539.093 ZM 73.923,541.500 C 72.169,548.413 75.545,558.026 81.259,562.384 C 90.637,569.537 104.475,567.900 111.267,558.835 C 113.400,555.988 122.640,533.195 138.562,491.500 C 140.733,485.814 143.559,480.314 145.113,478.750 C 146.024,477.833 146.935,476.917 147.846,476 C 176.993,476 206.141,476 235.288,476 C 335.848,476 325.736,474.876 330.420,486.577 C 336.260,501.164 358.025,553.146 359.377,555.734 C 362.637,561.976 370.606,567.005 377.218,566.994 C 389.346,566.973 398.923,557.614 398.978,545.728 C 399.001,540.631 399.967,543.091 371.985,477 C 364.417,459.125 350.468,426.050 340.987,403.500 C 331.506,380.950 317.677,348.100 310.256,330.500 C 302.835,312.900 290.264,282.975 282.322,264 C 274.380,245.025 266.549,226.726 264.920,223.335 C 260.878,214.921 254.153,207.707 247.202,204.328 C 242.214,201.903 240.311,201.553 232,201.528 C 223.618,201.503 221.838,201.825 216.875,204.262 C 210.567,207.360 203.273,214.582 200.027,220.946 C 197.772,225.366 192.936,237.514 157.997,326.500 C 146.336,356.200 131.935,392.875 125.997,408 C 120.059,423.125 106.084,458.675 94.942,487 C 83.800,515.325 74.342,539.850 73.923,541.500 Z" fill="#000000" stroke="none" />
  <path id="10" d="M 786.974,380.812 C 788.169,387.897 788.179,481.774 786.986,488.114 C 785.643,495.248 782.332,501.832 775.217,511.519 C 749.416,546.644 706.317,573.838 662,582.953 C 638.753,587.734 606.556,588.206 584.500,584.089 C 494.796,567.343 432.402,499.103 422.947,407.400 C 421.295,391.373 422.227,361.929 424.876,346.500 C 432.320,303.139 450.277,267.759 479.707,238.473 C 517.251,201.111 567.102,181 622.169,181 C 662.217,181 699.081,191.803 730.210,212.663 C 748.836,225.144 766.682,243.066 772.367,255 C 775.214,260.977 775.465,262.345 775.481,272 C 775.504,286.387 773.290,291.900 763.595,301.595 C 758.153,307.037 755.102,309.220 750.500,310.963 C 743.135,313.753 733.263,314.612 725.977,313.098 C 715.539,310.929 710.582,307.771 698.668,295.705 C 674.598,271.327 653.049,262 620.797,262 C 590.670,262 566.415,271.511 545.053,291.700 C 526.124,309.590 514.301,332.104 509.446,359.500 C 507.103,372.724 507.069,396.106 509.376,408.758 C 517.905,455.532 549.386,491.010 592.794,502.766 C 601.587,505.147 604.239,505.399 621,505.441 C 637.326,505.482 640.550,505.211 648.433,503.133 C 667.410,498.131 683.766,488.975 697.644,475.583 C 700.096,473.217 702.548,470.851 705,468.485 C 705,461.754 705,455.022 705,448.291 C 705,441.560 705,434.829 705,428.098 C 693.583,427.998 682.167,427.898 670.750,427.798 C 637.602,427.508 636.315,427.424 630.753,425.179 C 622.731,421.941 614.830,414.432 610.774,406.193 C 607.701,399.951 607.500,398.892 607.500,388.969 C 607.500,378.753 607.628,378.138 611.278,370.752 C 616.941,359.294 625.916,352.471 638.533,350.033 C 642.729,349.222 661.265,348.972 701,349.190 C 719.833,349.293 738.667,349.397 757.500,349.500 C 759.727,350.555 761.953,351.610 764.180,352.665 C 767.854,354.405 772.853,357.666 775.289,359.912 C 780.550,364.761 785.873,374.282 786.974,380.812 ZM 442.576,368.500 C 441.698,374.722 442.998,406.878 444.496,416 C 445.354,421.225 447.403,430.573 449.048,436.773 C 458.802,473.531 479.755,505.841 508.539,528.506 C 555.337,565.356 620.961,576.619 677.548,557.511 C 690.139,553.259 708.996,543.783 720.706,535.823 C 737.536,524.382 758.082,503.065 765.355,489.500 C 767.448,485.597 767.507,484.357 767.804,438.170 C 768.155,383.491 767.982,381.726 761.625,375.365 C 759.201,372.939 755.842,370.772 753.497,370.121 C 750.806,369.374 732.487,369.010 697.432,369.006 C 640.471,369 638.043,369.215 632.763,374.727 C 622.617,385.319 627.051,403.143 640.781,406.956 C 643.031,407.581 659.194,407.991 681.694,407.994 C 694.092,407.996 706.490,407.998 718.888,408 C 719.823,408.804 720.759,409.608 721.694,410.412 C 722.629,411.216 723.565,412.020 724.500,412.824 C 724.597,423.010 724.694,433.196 724.791,443.382 C 725.041,469.550 724.858,474.374 723.517,476.967 C 720.824,482.175 704.637,497.446 694.922,503.944 C 670.990,519.952 650.493,526.252 622,526.358 C 584.877,526.495 554.346,514.073 528.287,488.228 C 508.463,468.566 496.266,445.546 489.788,415.565 C 486.563,400.638 486.561,369.248 489.786,353.272 C 495.592,324.506 507.447,301.109 526.136,281.532 C 551.132,255.349 583.537,241.739 621,241.690 C 658.187,241.641 684.763,252.849 711.954,280.050 C 721.808,289.907 724.219,291.802 728.406,292.974 C 732.281,294.059 734.442,294.110 738.687,293.220 C 745.355,291.821 749.280,289.097 752.422,283.685 C 755.671,278.088 756.458,273.078 755.026,267.108 C 752.842,258.005 735.163,240.178 715.911,227.666 C 660.197,191.457 579.519,192.584 521.555,230.381 C 479.138,258.040 449.956,305.367 444.098,356 C 443.494,361.225 442.809,366.850 442.576,368.500 Z" fill="#000000" stroke="none" />
  <path id="11" d="M 73.923,541.500 C 74.342,539.850 83.800,515.325 94.942,487 C 106.084,458.675 120.059,423.125 125.997,408 C 131.935,392.875 146.336,356.200 157.997,326.500 C 192.936,237.514 197.772,225.366 200.027,220.946 C 203.273,214.582 210.567,207.360 216.875,204.262 C 221.838,201.825 223.618,201.503 232,201.528 C 240.311,201.553 242.214,201.903 247.202,204.328 C 254.153,207.707 260.878,214.921 264.920,223.335 C 266.549,226.726 274.380,245.025 282.322,264 C 290.264,282.975 302.835,312.900 310.256,330.500 C 317.677,348.100 331.506,380.950 340.987,403.500 C 350.468,426.050 364.417,459.125 371.985,477 C 399.967,543.091 399.001,540.631 398.978,545.728 C 398.923,557.614 389.346,566.973 377.218,566.994 C 370.606,567.005 362.637,561.976 359.377,555.734 C 358.025,553.146 336.260,501.164 330.420,486.577 C 325.736,474.876 335.848,476 235.288,476 C 206.141,476 176.993,476 147.846,476 C 146.935,476.917 146.024,477.833 145.113,478.750 C 143.559,480.314 140.733,485.814 138.562,491.500 C 122.640,533.195 113.400,555.988 111.267,558.835 C 104.475,567.900 90.637,569.537 81.259,562.384 C 75.545,558.026 72.169,548.413 73.923,541.500 ZM 300.955,412.500 C 294.862,396.871 276.645,349.020 256.053,294.551 C 247.746,272.579 240.243,253.821 239.378,252.865 C 235.819,248.932 228.230,248.865 224.750,252.735 C 223.877,253.706 219.786,264.175 215.659,276 C 203.520,310.785 176.695,387.003 169.580,406.926 C 165.961,417.060 163,426.668 163,428.276 C 163,430.272 164.086,432.286 166.421,434.621 C 167.561,435.761 168.703,436.903 169.843,438.043 C 191.528,437.953 213.214,437.861 234.899,437.771 C 256.584,437.681 278.270,437.590 299.955,437.500 C 300.806,436.649 301.658,435.797 302.509,434.946 C 306.856,430.598 306.607,426.998 300.955,412.500 Z" fill="#FFFFFF" stroke="none" />
  <path id="10" d="M 1325.888,216.618 C 1327.174,222.097 1327.253,427.091 1325.975,444 C 1322.492,490.099 1308.868,522.647 1281.972,549.126 C 1261.557,569.224 1234.964,582.018 1205.262,586.032 C 1192.617,587.741 1166.299,586.754 1155,584.146 C 1103.562,572.274 1066.911,536.056 1054.510,484.844 C 1049.264,463.178 1050.233,450.138 1057.982,438.149 C 1065.272,426.871 1076.020,420.854 1090.081,420.182 C 1113.489,419.063 1129.110,431.946 1134.036,456.432 C 1137.767,474.977 1144.294,487.048 1154.902,495.019 C 1171.685,507.630 1199.830,507.849 1218.413,495.514 C 1232.068,486.450 1240.139,469.705 1242.934,444.637 C 1243.605,438.619 1244,403.584 1244,350.039 C 1244,321.693 1244,293.346 1244,265 C 1235.196,265 1226.393,265 1217.589,265 C 1187.654,265 1183.182,264.240 1174.169,257.624 C 1150.961,240.588 1153.471,204.359 1178.805,190.732 C 1187.457,186.078 1190.936,185.841 1245.500,186.182 C 1296.172,186.498 1296.537,186.515 1302.247,188.821 C 1312.829,193.094 1323.239,205.334 1325.888,216.618 ZM 1071.934,455.994 C 1070.823,459.646 1070.859,460.594 1072.485,470.500 C 1076.704,496.211 1087.253,517.320 1104.429,534.423 C 1120.113,550.040 1138.425,559.654 1162,564.645 C 1173.545,567.089 1198.039,567.097 1210.312,564.661 C 1255.137,555.763 1288.784,522.785 1300.612,476.156 C 1306.473,453.053 1306.494,452.530 1306.497,331.500 C 1306.498,294.500 1306.499,257.500 1306.500,220.500 C 1305.586,218.946 1304.673,217.391 1303.759,215.837 C 1302.251,213.272 1299.326,210.122 1297.259,208.837 C 1296.006,208.058 1294.753,207.279 1293.500,206.500 C 1276.476,206.500 1259.451,206.500 1242.427,206.500 C 1225.403,206.500 1208.379,206.500 1191.355,206.500 C 1189.969,207.417 1188.583,208.334 1187.197,209.251 C 1181.124,213.269 1178.697,218.644 1179.171,227.024 C 1179.481,232.508 1180.068,234.400 1182.409,237.469 C 1187.928,244.705 1189.362,244.953 1225.827,244.978 C 1236.603,244.985 1247.378,244.993 1258.154,245 C 1259.128,245.974 1260.103,246.949 1261.077,247.923 C 1262.051,248.897 1263.026,249.872 1264,250.846 C 1264,282.051 1264,313.257 1264,344.462 C 1264,402.289 1263.603,441.791 1262.961,447.789 C 1258.654,488.064 1240.369,513.018 1208.455,522.176 C 1198.100,525.147 1176.212,525.373 1166,522.612 C 1153.349,519.192 1145.255,514.477 1135.951,505.109 C 1123.938,493.013 1117.948,481.062 1114.401,462.112 C 1112.498,451.947 1111.293,449.343 1106.578,445.203 C 1094.783,434.847 1076.648,440.496 1071.934,455.994 Z" fill="#000000" stroke="none" />
  <path id="10" d="M 1082.940,217.232 C 1086.623,235.916 1078.025,253.356 1061.201,261.326 C 1058.967,262.384 1056.734,263.442 1054.500,264.500 C 1042.917,264.603 1031.333,264.706 1019.750,264.809 C 1008.167,264.912 996.583,265.015 985,265.118 C 984.997,312.015 984.995,358.912 984.992,405.809 C 984.987,498.457 984.629,548.690 983.944,552.914 C 981.749,566.440 973.420,577.535 961.062,583.391 C 954.901,586.311 953.796,586.500 942.977,586.500 C 932.010,586.500 931.138,586.344 924.888,583.266 C 916.872,579.319 908.954,571.273 905.196,563.253 C 904.297,561.335 903.399,559.418 902.500,557.500 C 902.333,508.833 902.167,460.167 902,411.500 C 901.833,362.833 901.667,314.167 901.500,265.500 C 889.815,265.333 878.129,265.167 866.444,265 C 854.759,264.833 843.074,264.667 831.389,264.500 C 829.156,263.366 826.921,262.231 824.688,261.097 C 799.645,248.379 794.781,215.380 815.166,196.507 C 818.611,193.318 823.259,190.230 826.715,188.835 C 828.643,188.057 830.572,187.278 832.500,186.500 C 869.500,186.500 906.500,186.500 943.500,186.500 C 980.500,186.500 1017.500,186.500 1054.500,186.500 C 1056.406,187.393 1058.312,188.287 1060.218,189.180 C 1071.043,194.254 1080.780,206.274 1082.940,217.232 ZM 825.027,215.830 C 822.857,219.938 822.383,228.236 824.064,232.685 C 825.576,236.687 829.844,240.948 834.500,243.104 C 838.167,244.802 841.639,244.958 876.203,244.978 C 902.223,244.993 914.680,245.353 916.405,246.139 C 922.313,248.831 921.998,240.075 922.022,402.151 C 922.043,543.480 922.130,550.690 923.865,554.509 C 926.088,559.403 931.557,564.369 936.531,566.010 C 945.560,568.990 957.308,564.356 961.672,556.093 C 962.448,554.624 963.224,553.154 964,551.685 C 964,502.121 964,452.556 964,402.992 C 964,296.746 964.316,253.391 965.108,251.119 C 967.203,245.110 967.962,245.004 1009.700,244.956 C 1049.320,244.910 1052.463,244.605 1057.173,240.345 C 1066.412,231.990 1064.230,213.814 1053.339,208.406 C 1049.648,206.574 1045.474,206.489 945.500,206.216 C 872.694,206.017 840.172,206.259 837.071,207.025 C 831.305,208.449 827.429,211.282 825.027,215.830 Z" fill="#000000" stroke="none" />
  <path id="11" d="M 442.576,368.500 C 442.809,366.850 443.494,361.225 444.098,356 C 449.956,305.367 479.138,258.040 521.555,230.381 C 579.519,192.584 660.197,191.457 715.911,227.666 C 735.163,240.178 752.842,258.005 755.026,267.108 C 756.458,273.078 755.671,278.088 752.422,283.685 C 749.280,289.097 745.355,291.821 738.687,293.220 C 734.442,294.110 732.281,294.059 728.406,292.974 C 724.219,291.802 721.808,289.907 711.954,280.050 C 684.763,252.849 658.187,241.641 621,241.690 C 583.537,241.739 551.132,255.349 526.136,281.532 C 507.447,301.109 495.592,324.506 489.786,353.272 C 486.561,369.248 486.563,400.638 489.788,415.565 C 496.266,445.546 508.463,468.566 528.287,488.228 C 554.346,514.073 584.877,526.495 622,526.358 C 650.493,526.252 670.990,519.952 694.922,503.944 C 704.637,497.446 720.824,482.175 723.517,476.967 C 724.858,474.374 725.041,469.550 724.791,443.382 C 724.694,433.196 724.597,423.010 724.500,412.824 C 723.565,412.020 722.629,411.216 721.694,410.412 C 720.759,409.608 719.823,408.804 718.888,408 C 706.490,407.998 694.092,407.996 681.694,407.994 C 659.194,407.991 643.031,407.581 640.781,406.956 C 627.051,403.143 622.617,385.319 632.763,374.727 C 638.043,369.215 640.471,369 697.432,369.006 C 732.487,369.010 750.806,369.374 753.497,370.121 C 755.842,370.772 759.201,372.939 761.625,375.365 C 767.982,381.726 768.155,383.491 767.804,438.170 C 767.507,484.357 767.448,485.597 765.355,489.500 C 758.082,503.065 737.536,524.382 720.706,535.823 C 708.996,543.783 690.139,553.259 677.548,557.511 C 620.961,576.619 555.337,565.356 508.539,528.506 C 479.755,505.841 458.802,473.531 449.048,436.773 C 447.403,430.573 445.354,421.225 444.496,416 C 442.998,406.878 441.698,374.722 442.576,368.500 Z" fill="#FFFFFF" stroke="none" />
  <path id="11" d="M 1071.934,455.994 C 1076.648,440.496 1094.783,434.847 1106.578,445.203 C 1111.293,449.343 1112.498,451.947 1114.401,462.112 C 1117.948,481.062 1123.938,493.013 1135.951,505.109 C 1145.255,514.477 1153.349,519.192 1166,522.612 C 1176.212,525.373 1198.100,525.147 1208.455,522.176 C 1240.369,513.018 1258.654,488.064 1262.961,447.789 C 1263.603,441.791 1264,402.289 1264,344.462 C 1264,313.257 1264,282.051 1264,250.846 C 1263.026,249.872 1262.051,248.897 1261.077,247.923 C 1260.103,246.949 1259.128,245.974 1258.154,245 C 1247.378,244.993 1236.603,244.985 1225.827,244.978 C 1189.362,244.953 1187.928,244.705 1182.409,237.469 C 1180.068,234.400 1179.481,232.508 1179.171,227.024 C 1178.697,218.644 1181.124,213.269 1187.197,209.251 C 1188.583,208.334 1189.969,207.417 1191.355,206.500 C 1208.379,206.500 1225.403,206.500 1242.427,206.500 C 1259.451,206.500 1276.476,206.500 1293.500,206.500 C 1294.753,207.279 1296.006,208.058 1297.259,208.837 C 1299.326,210.122 1302.251,213.272 1303.759,215.837 C 1304.673,217.391 1305.586,218.946 1306.500,220.500 C 1306.499,257.500 1306.498,294.500 1306.497,331.500 C 1306.494,452.530 1306.473,453.053 1300.612,476.156 C 1288.784,522.785 1255.137,555.763 1210.312,564.661 C 1198.039,567.097 1173.545,567.089 1162,564.645 C 1138.425,559.654 1120.113,550.040 1104.429,534.423 C 1087.253,517.320 1076.704,496.211 1072.485,470.500 C 1070.859,460.594 1070.823,459.646 1071.934,455.994 Z" fill="#FFFFFF" stroke="none" />
  <path id="11" d="M 825.027,215.830 C 827.429,211.282 831.305,208.449 837.071,207.025 C 840.172,206.259 872.694,206.017 945.500,206.216 C 1045.474,206.489 1049.648,206.574 1053.339,208.406 C 1064.230,213.814 1066.412,231.990 1057.173,240.345 C 1052.463,244.605 1049.320,244.910 1009.700,244.956 C 967.962,245.004 967.203,245.110 965.108,251.119 C 964.316,253.391 964,296.746 964,402.992 C 964,452.556 964,502.121 964,551.685 C 963.224,553.154 962.448,554.624 961.672,556.093 C 957.308,564.356 945.560,568.990 936.531,566.010 C 931.557,564.369 926.088,559.403 923.865,554.509 C 922.130,550.690 922.043,543.480 922.022,402.151 C 921.998,240.075 922.313,248.831 916.405,246.139 C 914.680,245.353 902.223,244.993 876.203,244.978 C 841.639,244.958 838.167,244.802 834.500,243.104 C 829.844,240.948 825.576,236.687 824.064,232.685 C 822.383,228.236 822.857,219.938 825.027,215.830 Z" fill="#FFFFFF" stroke="none" />
  <path id="10" d="M 300.955,412.500 C 306.607,426.998 306.856,430.598 302.509,434.946 C 301.658,435.797 300.806,436.649 299.955,437.500 C 278.270,437.590 256.584,437.681 234.899,437.771 C 213.214,437.861 191.528,437.953 169.843,438.043 C 168.703,436.903 167.561,435.761 166.421,434.621 C 164.086,432.286 163,430.272 163,428.276 C 163,426.668 165.961,417.060 169.580,406.926 C 176.695,387.003 203.520,310.785 215.659,276 C 219.786,264.175 223.877,253.706 224.750,252.735 C 228.230,248.865 235.819,248.932 239.378,252.865 C 240.243,253.821 247.746,272.579 256.053,294.551 C 276.645,349.020 294.862,396.871 300.955,412.500 ZM 191.046,407 C 189.484,411.125 188.160,415.288 188.103,416.250 C 188.006,417.893 190.815,418 233.941,418 C 259.209,418 280.066,417.663 280.291,417.250 C 280.516,416.837 276.125,404.575 270.532,390 C 264.939,375.425 255.933,351.800 250.517,337.500 C 234.045,294.006 232.764,290.833 232.021,291.681 C 231.215,292.602 228.142,301.213 208.001,359 C 200.237,381.275 192.608,402.875 191.046,407 Z" fill="#000000" stroke="none" />
  <path id="11" d="M 191.046,407 C 192.608,402.875 200.237,381.275 208.001,359 C 228.142,301.213 231.215,292.602 232.021,291.681 C 232.764,290.833 234.045,294.006 250.517,337.500 C 255.933,351.800 264.939,375.425 270.532,390 C 276.125,404.575 280.516,416.837 280.291,417.250 C 280.066,417.663 259.209,418 233.941,418 C 190.815,418 188.006,417.893 188.103,416.250 C 188.160,415.288 189.484,411.125 191.046,407 Z" fill="#FFFFFF" stroke="none" />
</svg>
